<?xml version="1.0" encoding="UTF-8"?>
<svg id="Layer_2" data-name="Layer 2" xmlns="http://www.w3.org/2000/svg" viewBox="0 0 192.31 178.76">
  <defs>
    <style>
      .cls-1 {
        fill: #0c2340;
      }

      .cls-2 {
        fill: #ffd520;
      }

      .cls-3 {
        fill: #9ea2a2;
      }
    </style>
  </defs>
  <g id="Layer_1-2" data-name="Layer 1">
    <g>
      <path class="cls-3" d="M177.25,24.68C164.15,8.84,144.6-.23,124.04,0H39.32S0,178.71,0,178.71l72.33.05,10.38-43.24c9.72,0,35.26.01,35.24.01,24.23.17,44.11-8.04,57.49-23.73,24.31-26.47,20.04-65.11,1.81-87.11"/>
      <path class="cls-1" d="M79.01,130.81l-10.38,43.24-62.79.02L43.1,4.72l80.93.06c19.16-.33,37.42,8.11,49.59,22.91,17.95,21.66,19.71,57.66-1.77,81.06-13.17,15.44-32.48,22.23-53.88,22.07h-38.97Z"/>
      <g>
        <path class="cls-2" d="M34.76,42.34l35.47.03c4.08,0,8.42,3.42,6.54,8.6-1.21,3.36-2.03,6.85-2.47,10.4-.32,2.72,2.72,4.43,4.46,4.43l72.29.05c1.36,0,2.08-.39,2.08-1.03,0-1.58-.12-3.16-.32-4.72-.25-1.61-.52-1.88-1.81-1.88-9.01,0-12.68-4.02-22.13-10.12-9.44-6.09-23.3-9.59-35.2-9.6l-58.04-.04-.86,3.88Z"/>
        <path class="cls-2" d="M78.56,89.16c-1.32-2.83-2.36-5.77-3.12-8.8-1.07-4.29-5.09-7.18-9.5-6.81l-38.05-.03.94-4.27,123.32.08c1.23,0,.97.52.91,1.88-.07,1.36-.39,3.89-.59,5.38-.19,1.48-1.42,1.13-2.59,1.16-3.85-.02-7.63,1.01-10.94,2.97-5.11,3.84-16,10.58-22.14,12.54-6.57,2.09-31.12,9.61-38.32-4.24"/>
        <path class="cls-2" d="M21.07,104.59l64.39.05c2.59-.13,5.14.67,7.19,2.25,5.93,4.61,12.72,7.98,19.98,9.91,3.36.97,9.14-.28,14.31-3.21,12.89-7.29,21.19-21.15,23.9-30.08.71-2.33-.65-2.14-2.45-2.02-5.43.39-11.14,5.3-18.65,10.09-7.51,4.78-22.79,9.31-37.29,9.29l-70.55-.04-.83,3.75Z"/>
        <path class="cls-2" d="M115.53,18.36c2-.3,4.03-.18,5.98.35,12.23,4.82,23.8,17.55,28.65,31.09.93,2.6,1.16,4.27,0,4.4-5.61.62-8.22-2.15-14.82-6.61-6.45-4.45-13.54-7.88-21.03-10.18-8.23-2.62-23.23-2.99-25.17-3.06-1.93-.06-1.69-.88-.84-1.72,7.44-7.38,16.93-12.35,27.24-14.27"/>
        <path class="cls-2" d="M174.22,64.76c-.04.62-.54,1.1-1.16,1.1-.06,0-14.11-.01-14.11-.01-1.81,0-1.85-.84-1.9-1.88-.07-1.03-.36-3.11-.42-4.34-.06-1.19-.5-2.56,1.1-3.23,3.97-1.86,7.24-4.95,9.33-8.8.57-1.11,1.42-2.94,2.39-1.38,3.34,5.34,4.38,11.93,4.78,18.54"/>
        <path class="cls-2" d="M169.17,90.1c-.24.47-1.15.83-1.44.06-2.07-4.79-5.71-8.72-10.32-11.17-.84-.39-1.26-1.35-.97-2.23.13-1,.56-4.21.62-5.57.05-1.07.49-1.84,1.29-1.84h14.7c.52.01,1.17.48,1.17.87-.16,6.93-1.89,13.73-5.05,19.89"/>
        <path class="cls-2" d="M130.95,117.69c-1.04.15-3.3-.21.27-2.28,10.68-6.21,20.19-20.78,22.73-29.14.97-3.19,1.07-3.36,2.3-3.01,2.52,1.2,4.66,3.07,6.18,5.41,1.97,2.72,2.83,8.01,1.69,9.53-8.09,10.57-19.99,17.57-33.16,19.49"/>
        <path class="cls-2" d="M158.12,51.75c-2.48,1.34-2.96,1.09-3.49-.78-4.64-16.28-18.33-28.33-23.92-31.89-1.07-.67-.79-1.12-.02-1.02,13.4,1.78,26.52,9.09,33.12,19.09,3.78,5.73-3.29,13.31-5.69,14.61"/>
      </g>
    </g>
  </g>
</svg>